<svg width="161" height="189" viewBox="0 0 161 189" fill="none" xmlns="http://www.w3.org/2000/svg">
<path d="M22.4486 165.013H142.32C150.18 165.013 156.555 158.635 156.555 150.773V15.8092C156.555 9.15935 151.162 3.76416 144.515 3.76416H15.8018C9.155 3.76416 3.76233 9.15935 3.76233 15.8092V146.339C3.78323 156.649 12.144 165.013 22.4486 165.013Z" fill="#FFECF3"/>
<path d="M140.69 121.496H126.56C124.47 121.496 122.777 119.802 122.777 117.711C122.777 115.62 124.47 113.926 126.56 113.926H140.69C142.78 113.926 144.473 115.62 144.473 117.711C144.452 119.823 142.78 121.496 140.69 121.496Z" fill="#FFB0C8"/>
<path d="M140.69 132.6H126.56C124.47 132.6 122.777 130.906 122.777 128.815C122.777 126.724 124.47 125.03 126.56 125.03H140.69C142.78 125.03 144.473 126.724 144.473 128.815C144.452 130.906 142.78 132.6 140.69 132.6Z" fill="#FFB0C8"/>
<path d="M140.69 143.705H126.56C124.47 143.705 122.777 142.011 122.777 139.92C122.777 137.829 124.47 136.135 126.56 136.135H140.69C142.78 136.135 144.473 137.829 144.473 139.92C144.473 142.011 142.78 143.705 140.69 143.705Z" fill="#FFB0C8"/>
<path d="M142.32 168.798H22.4486C10.0747 168.798 0 158.719 0 146.339V15.8092C0 7.08903 7.08572 0 15.8018 0H144.515C153.231 0 160.317 7.08903 160.317 15.8092V150.773C160.338 160.706 152.249 168.798 142.32 168.798ZM15.8018 7.54908C11.2452 7.54908 7.54556 11.2504 7.54556 15.8092V146.339C7.54556 154.558 14.2341 161.249 22.4486 161.249H142.32C148.089 161.249 152.771 156.565 152.771 150.793V15.8092C152.771 11.2504 149.072 7.54908 144.515 7.54908H15.8018Z" fill="#FFB0C8"/>
<path d="M80.1585 105.939C109.988 105.939 134.169 111.877 134.169 61.3341C134.169 12.5472 109.988 16.7297 80.1585 16.7297C50.3294 16.7297 26.1482 12.5475 26.1482 61.3341C26.1482 112.923 50.3294 105.939 80.1585 105.939Z" fill="#F9F9F9"/>
<path d="M85.1959 109.723C84.4016 109.723 83.5864 109.723 82.7503 109.723H80.1585H77.5667C58.8596 109.723 45.3361 109.744 36.0766 103.533C26.3363 96.9878 22.365 84.7754 22.365 61.3335C22.365 37.9126 26.3363 25.6793 36.0766 19.134C45.3361 12.9232 58.8387 12.9232 77.5667 12.9441H80.1585H82.7503C101.457 12.9232 114.981 12.9232 124.24 19.134C133.981 25.6793 137.952 37.8916 137.952 61.3335C137.952 84.7545 133.981 96.9878 124.24 103.533C115.399 109.472 102.649 109.723 85.1959 109.723ZM80.1585 102.153H82.7712C100.162 102.153 112.703 102.174 120.039 97.2387C125.16 93.7883 130.406 86.8248 130.406 61.3126C130.406 35.8005 125.16 28.8369 120.039 25.3865C112.703 20.4514 100.141 20.4514 82.7712 20.4723H80.1585H77.5458C60.1764 20.4514 47.6144 20.4514 40.2778 25.3865C35.1569 28.8369 29.9105 35.8005 29.9105 61.3126C29.9105 86.8248 35.1569 93.7883 40.2778 97.2387C47.6144 102.174 60.1764 102.153 77.5458 102.153H80.1585Z" fill="#FFB0C8"/>
<path d="M89.7525 74.3408C88.2057 75.93 86.1156 76.9756 83.4819 77.4775V79.5268C83.5028 81.2416 82.2487 82.4545 80.5557 82.4126C78.8626 82.4336 77.5876 81.2416 77.6294 79.5268V77.6448C74.5151 77.2475 71.8605 76.3483 69.6658 74.9263C67.931 74.0271 67.9101 71.5386 69.0179 70.1375C70.1466 68.6946 71.6515 69.1547 73.0728 70.0121C75.4347 71.2877 77.3159 71.8523 79.9077 71.8523C81.3918 71.8523 82.5205 71.6013 83.2938 71.1204C84.4852 70.4512 84.9451 68.4228 83.7537 67.4608C82.3114 66.3944 81.1409 66.3316 79.0298 65.7252C76.9397 65.2024 75.2048 64.6587 73.8671 64.115C72.5294 63.5713 71.3589 62.7139 70.3765 61.5638C68.0773 58.8035 68.5371 53.6592 71.2544 51.0453C72.822 49.3932 74.8913 48.3058 77.4622 47.7621V45.671C77.4204 44.019 78.7581 42.7434 80.3885 42.7852C82.0815 42.7643 83.3565 43.9562 83.3147 45.671V47.6367C85.6348 47.9922 87.8922 48.8914 90.1078 50.2715C91.8009 51.2544 91.8845 53.6592 90.7349 55.0603C89.5435 56.5032 88.143 56.0222 86.659 55.1858C84.318 53.701 80.2213 52.4254 77.6921 54.1611C76.1454 55.1648 76.0409 57.5697 77.8594 58.3852C78.7581 58.8244 80.1585 59.2844 82.1024 59.7236C85.7811 60.6855 88.3103 61.041 90.6304 63.8013C92.8668 66.5407 92.4697 71.8105 89.7525 74.3408Z" fill="#606060"/>
<path d="M110.675 142.659H49.6626C46.5273 142.659 43.9773 140.108 43.9773 136.971V126.181C43.9773 123.044 46.5273 120.493 49.6626 120.493H110.675C113.81 120.493 116.36 123.044 116.36 126.181V136.971C116.36 140.108 113.81 142.659 110.675 142.659Z" fill="white"/>
<path d="M110.675 146.444H49.6626C44.4372 146.444 40.1941 142.199 40.1941 136.971V126.18C40.1941 120.953 44.4372 116.708 49.6626 116.708H110.675C115.9 116.708 120.144 120.953 120.144 126.18V136.971C120.123 142.199 115.88 146.444 110.675 146.444ZM49.6626 124.278C48.6175 124.278 47.7606 125.135 47.7606 126.18V136.971C47.7606 138.016 48.6175 138.874 49.6626 138.874H110.675C111.72 138.874 112.577 138.016 112.577 136.971V126.18C112.577 125.135 111.72 124.278 110.675 124.278H49.6626Z" fill="#FFB0C8"/>
<path d="M106.516 131.576H53.8011V185.047H106.516V131.576Z" fill="white"/>
<path d="M102.732 131.576V166.435C95.2913 167.941 89.4388 173.817 87.9338 181.262H72.3829C70.878 173.817 65.0046 167.941 57.5844 166.435V131.576H50.0179V185.047C50.0179 187.138 51.711 188.832 53.8012 188.832H106.516C108.606 188.832 110.299 187.138 110.299 185.047V131.576H102.732ZM57.5844 174.277C60.8451 175.427 63.416 177.999 64.5656 181.262H57.5844V174.277ZM95.772 181.262C96.9216 177.999 99.4926 175.427 102.753 174.277V181.262H95.772Z" fill="#606060"/>
<path d="M80.1793 154.181C89.7732 154.181 97.5696 146.381 97.5696 136.783C97.5696 134.482 97.1306 132.245 96.2528 130.133L89.2716 133.04C89.7732 134.231 90.024 135.486 90.024 136.804C90.024 142.241 85.6137 146.653 80.2002 146.653C74.7657 146.653 70.3554 142.241 70.3554 136.804C70.3554 135.507 70.6062 134.231 71.1079 133.04L64.1267 130.133C63.2488 132.245 62.8099 134.482 62.8099 136.783C62.7681 146.381 70.5853 154.181 80.1793 154.181Z" fill="#606060"/>
<path d="M107.54 135.361H52.7978C50.7076 135.361 49.0145 133.667 49.0145 131.576C49.0145 129.485 50.7076 127.791 52.7978 127.791H107.54C109.63 127.791 111.323 129.485 111.323 131.576C111.323 133.667 109.609 135.361 107.54 135.361Z" fill="#606060"/>
</svg>
