<svg width="180" height="170" viewBox="0 0 180 170" fill="none" xmlns="http://www.w3.org/2000/svg">
<path d="M141.473 76.4938C162.672 76.4938 179.825 59.3874 179.825 38.2296C179.825 17.0717 162.672 0 141.473 0C120.275 0 103.122 17.1063 103.122 38.2642C103.122 59.4221 120.24 76.4938 141.473 76.4938ZM141.473 21.9543C150.499 21.9543 157.796 29.2609 157.796 38.2642C157.796 47.2675 150.499 54.5741 141.473 54.5741C132.448 54.5741 125.151 47.2675 125.151 38.2642C125.151 29.2609 132.448 21.9543 141.473 21.9543Z" fill="#A50064"/>
<path d="M141.473 93.0806C120.275 93.0806 103.122 110.187 103.122 131.345C103.122 152.503 120.275 169.609 141.473 169.609C162.672 169.609 179.825 152.503 179.825 131.345C179.825 110.187 162.672 93.0806 141.473 93.0806ZM141.473 147.62C132.448 147.62 125.151 140.313 125.151 131.31C125.151 122.307 132.448 115 141.473 115C150.499 115 157.796 122.307 157.796 131.31C157.796 140.313 150.499 147.62 141.473 147.62Z" fill="#A50064"/>
<path d="M63.319 93.0806C56.8177 93.0806 50.8696 95.2275 46.0974 98.8289C41.3251 95.2275 35.2733 93.0806 28.8757 93.0806C13.0027 93.0806 0.10376 105.962 0.10376 121.787V169.678H22.1323V121.51C22.1323 117.909 25.0025 115.035 28.6336 115.035C32.2647 115.035 35.135 117.909 35.135 121.51V169.574H57.1635V121.51C57.1635 117.909 60.0338 115.035 63.6648 115.035C67.2613 115.035 70.1662 117.909 70.1662 121.51V169.574H92.0909V121.683C92.0218 105.928 79.192 93.0806 63.319 93.0806Z" fill="#A50064"/>
<path d="M63.319 0C56.8176 0 50.8696 2.14695 46.0973 5.74829C41.3251 2.14695 35.2733 0 28.8757 0C12.899 0 0 12.8817 0 28.7068V76.4938H22.0285V28.4298C22.0285 24.8284 24.8988 21.9543 28.5299 21.9543C32.1609 21.9543 35.0312 24.8284 35.0312 28.4298V76.4938H57.0597V28.4298C57.0597 24.8284 59.93 21.9543 63.5611 21.9543C67.1576 21.9543 70.0624 24.8284 70.0624 28.4298V76.4938H92.0909V28.7068C92.0218 12.8817 79.192 0 63.319 0Z" fill="#A50064"/>
</svg>
