<svg width="167" height="166" viewBox="0 0 167 166" fill="none" xmlns="http://www.w3.org/2000/svg">
<path fill-rule="evenodd" clip-rule="evenodd" d="M58.2437 4.53408C63.8618 -1.2807 73.4115 -1.17863 79.5784 4.77964L161.535 83.9642C167.702 89.9225 168.132 99.463 162.514 105.278L148.713 119.562C147.968 120.334 146.975 120.825 145.885 120.958C144.796 121.091 143.672 120.859 142.687 120.299C139.662 118.579 136.212 117.869 132.869 118.277C129.525 118.686 126.474 120.19 124.185 122.559C121.897 124.928 120.498 128.029 120.205 131.384C119.912 134.74 120.74 138.164 122.563 141.128C123.157 142.093 123.427 143.208 123.332 144.301C123.236 145.394 122.78 146.404 122.034 147.175L108.233 161.459C102.615 167.274 93.0649 167.172 86.8981 161.214L4.94159 82.0291C-1.22525 76.0708 -1.6557 66.5303 3.96241 60.7155L17.7363 46.4595C18.4863 45.6852 19.487 45.1959 20.5824 45.0678C21.6777 44.9398 22.8061 45.1802 23.7916 45.7516C26.8245 47.5142 30.2993 48.2563 33.6723 47.8618C37.0452 47.4672 40.1259 45.9582 42.4324 43.571C44.7389 41.1838 46.1411 38.0529 46.4194 34.6684C46.6977 31.2839 45.8366 27.8367 43.9706 24.8662C43.3657 23.9009 43.0866 22.7815 43.1769 21.6824C43.2672 20.5833 43.7218 19.5663 44.4698 18.7901L58.2437 4.53408ZM88.0214 47.6705L91.335 118.764C91.3639 120.397 90.7535 121.94 89.6334 123.065C88.5132 124.19 86.9715 124.809 85.3354 124.79C83.6993 124.771 82.0975 124.115 80.8699 122.963C79.6423 121.811 78.8857 120.252 78.7604 118.618L75.4468 47.5245C75.3824 46.6838 75.4872 45.8487 75.755 45.0685C76.0229 44.2883 76.4483 43.579 77.0061 42.9826C77.564 42.3862 78.2428 41.9148 79.0025 41.5964C79.7622 41.2779 80.5873 41.1188 81.4289 41.1286C82.2705 41.1384 83.1115 41.3168 83.9021 41.6533C84.6927 41.9897 85.4168 42.4774 86.0316 43.0874C86.6463 43.6975 87.1392 44.4174 87.481 45.2046C87.8227 45.9919 88.0065 46.8304 88.0214 47.6705ZM47.4807 75.6052C45.6811 77.4677 44.74 80.0121 44.8643 82.6786C44.9885 85.3451 46.1681 87.9153 48.1434 89.8238C50.1187 91.7323 52.7279 92.8228 55.3971 92.8553C58.0664 92.8878 60.5769 91.8597 62.3764 89.9971C64.1759 88.1346 65.1171 85.5902 64.9928 82.9237C64.8685 80.2572 63.689 77.687 61.7137 75.7785C59.7384 73.87 57.1291 72.7796 54.4599 72.7471C51.7907 72.7146 49.2802 73.7427 47.4807 75.6052ZM104.413 76.2984C102.613 78.1609 101.672 80.7053 101.796 83.3718C101.921 86.0383 103.1 88.6086 105.076 90.5171C107.051 92.4256 109.66 93.516 112.329 93.5485C114.999 93.581 117.509 92.5529 119.309 90.6904C121.108 88.8278 122.049 86.2834 121.925 83.6169C121.801 80.9504 120.621 78.3802 118.646 76.4717C116.671 74.5632 114.061 73.4728 111.392 73.4403C108.723 73.4078 106.212 74.4359 104.413 76.2984Z" fill="#FFB0C8"/>
</svg>
