<svg width="216" height="94" viewBox="0 0 216 94" fill="none" xmlns="http://www.w3.org/2000/svg">
<path d="M125.648 35.6682C123.978 33.9441 121.822 33.082 119.236 33.082C115.411 33.082 112.663 34.9139 110.885 38.5777C107.167 34.2135 102.049 32.0044 95.5829 32.0044C87.8242 32.0044 81.3048 35.0217 75.9706 41.0023C70.6904 46.983 68.0503 54.3107 68.0503 62.9315C68.0503 71.5523 70.6904 78.8799 75.9706 84.8606C81.2509 90.8413 87.8242 93.8586 95.5829 93.8586C102.049 93.8586 107.167 91.6495 110.885 87.2852C112.609 90.9491 115.411 92.781 119.236 92.781C121.822 92.781 123.978 91.9189 125.648 90.1947C127.318 88.4706 128.18 86.3693 128.18 83.8908V42.0261C128.126 39.4937 127.318 37.3924 125.648 35.6682ZM107.059 73.2764C104.904 76.0782 101.887 77.4791 98.1153 77.4791C94.2898 77.4791 91.3264 76.0782 89.1712 73.2764C87.016 70.4747 85.9384 67.0264 85.9384 62.8776C85.9384 58.7288 87.016 55.2805 89.1712 52.4788C91.3264 49.677 94.3437 48.2761 98.1153 48.2761C101.941 48.2761 104.904 49.677 107.059 52.4788C109.215 55.2805 110.292 58.7288 110.292 62.8776C110.346 67.0264 109.268 70.4747 107.059 73.2764Z" fill="#118ACB"/>
<path d="M148.331 90.1411C146.661 91.8653 144.506 92.7274 141.92 92.7274C139.333 92.7274 137.178 91.8653 135.508 90.1411C133.838 88.417 132.976 86.3157 132.976 83.8372V8.89019C132.976 6.41171 133.838 4.3104 135.508 2.58624C137.178 0.862079 139.333 0 141.92 0C144.506 0 146.661 0.862079 148.331 2.58624C150.002 4.3104 150.864 6.41171 150.864 8.89019V83.8372C150.864 86.3157 150.002 88.417 148.331 90.1411Z" fill="#118ACB"/>
<path d="M207.384 41.0023C201.673 35.0217 194.399 32.0044 185.563 32.0044C176.726 32.0044 169.506 34.9678 163.903 40.8946C158.299 46.8214 155.498 54.1491 155.498 62.9315C155.498 71.7139 158.299 79.0416 163.903 84.9684C169.506 90.8952 176.726 93.8586 185.563 93.8586C194.399 93.8586 201.673 90.8413 207.384 84.8606C212.88 78.9877 215.628 71.7139 215.628 62.9315C215.574 54.1491 212.826 46.8214 207.384 41.0023ZM194.507 73.2764C192.351 76.0782 189.334 77.4791 185.563 77.4791C181.737 77.4791 178.774 76.0782 176.619 73.2764C174.463 70.4747 173.386 67.0264 173.386 62.8776C173.386 58.7288 174.463 55.2805 176.619 52.4788C178.774 49.677 181.791 48.2761 185.563 48.2761C189.388 48.2761 192.351 49.677 194.507 52.4788C196.662 55.2805 197.739 58.7288 197.739 62.8776C197.739 67.0264 196.662 70.4747 194.507 73.2764Z" fill="#118ACB"/>
<path d="M58.1903 34.0523C64.4942 25.9165 67.6193 20.4746 67.6193 17.619C67.6193 11.0995 63.5244 7.8667 55.3347 7.8667H12.0691C8.67462 7.8667 6.03451 8.6749 4.20259 10.2913C2.31679 11.9077 1.40083 14.009 1.40083 16.5414C1.40083 19.1276 2.31679 21.175 4.20259 22.7914C6.08839 24.4078 8.67462 25.216 12.0691 25.216H41.7569L3.77155 74.3546C1.29307 77.5873 0.053833 80.443 0.053833 82.9215C0.053833 90.0875 4.79527 93.6436 14.2243 93.6436H58.8368C65.949 93.6436 69.5051 90.6263 69.5051 84.6456C69.5051 78.6649 65.949 75.6477 58.8368 75.6477H26.024L58.1903 34.0523Z" fill="#118ACB"/>
</svg>
